<svg width="891" height="179" viewBox="0 0 891 179" fill="none" xmlns="http://www.w3.org/2000/svg">
<path d="M204.518 109.794V65.7745H223.118C225.019 65.7745 226.755 66.1672 228.326 66.9525C229.897 67.7378 231.261 68.8125 232.418 70.1765C233.617 71.4992 234.526 72.9872 235.146 74.6405C235.807 76.2525 236.138 77.9058 236.138 79.6005C236.138 81.7085 235.725 83.6925 234.898 85.5525C234.113 87.4125 232.976 88.9832 231.488 90.2645C230.041 91.5458 228.326 92.3932 226.342 92.8065L237.13 109.794H232.232L221.878 93.5505H208.858V109.794H204.518ZM208.858 89.7065H223.242C224.978 89.7065 226.487 89.2312 227.768 88.2805C229.049 87.3298 230.041 86.0898 230.744 84.5605C231.447 82.9898 231.798 81.3365 231.798 79.6005C231.798 77.8232 231.385 76.1905 230.558 74.7025C229.773 73.1732 228.698 71.9538 227.334 71.0445C226.011 70.0938 224.523 69.6185 222.87 69.6185H208.858V89.7065ZM262.756 110.104C259.656 110.104 256.845 109.484 254.324 108.244C251.803 107.004 249.633 105.33 247.814 103.222C245.995 101.073 244.59 98.6758 243.598 96.0305C242.606 93.3438 242.11 90.5952 242.11 87.7845C242.11 84.8498 242.627 82.0598 243.66 79.4145C244.693 76.7278 246.14 74.3512 248 72.2845C249.901 70.1765 252.113 68.5232 254.634 67.3245C257.155 66.0845 259.883 65.4645 262.818 65.4645C265.918 65.4645 268.729 66.1052 271.25 67.3865C273.771 68.6678 275.921 70.3832 277.698 72.5325C279.517 74.6818 280.922 77.0792 281.914 79.7245C282.906 82.3698 283.402 85.0772 283.402 87.8465C283.402 90.7812 282.885 93.5918 281.852 96.2785C280.819 98.9238 279.372 101.3 277.512 103.408C275.652 105.475 273.461 107.108 270.94 108.306C268.419 109.505 265.691 110.104 262.756 110.104ZM246.45 87.7845C246.45 90.1818 246.843 92.4965 247.628 94.7285C248.413 96.9192 249.529 98.8825 250.976 100.618C252.423 102.313 254.138 103.677 256.122 104.71C258.147 105.702 260.359 106.198 262.756 106.198C265.277 106.198 267.53 105.682 269.514 104.648C271.539 103.574 273.255 102.168 274.66 100.432C276.107 98.6552 277.202 96.6712 277.946 94.4805C278.69 92.2898 279.062 90.0578 279.062 87.7845C279.062 85.3872 278.669 83.0932 277.884 80.9025C277.099 78.7118 275.962 76.7485 274.474 75.0125C273.027 73.2765 271.312 71.9125 269.328 70.9205C267.344 69.9285 265.153 69.4325 262.756 69.4325C260.276 69.4325 258.023 69.9492 255.998 70.9825C254.014 72.0158 252.299 73.4212 250.852 75.1985C249.447 76.9345 248.351 78.8978 247.566 81.0885C246.822 83.2792 246.45 85.5112 246.45 87.7845ZM291.584 109.794V65.7745H306.526C311.197 65.7745 315.082 66.7665 318.182 68.7505C321.324 70.6932 323.68 73.3385 325.25 76.6865C326.821 79.9932 327.606 83.6718 327.606 87.7225C327.606 92.1865 326.738 96.0718 325.002 99.3785C323.308 102.685 320.869 105.248 317.686 107.066C314.545 108.885 310.825 109.794 306.526 109.794H291.584ZM323.266 87.7225C323.266 84.2092 322.605 81.0885 321.282 78.3605C320.001 75.6325 318.12 73.5038 315.64 71.9745C313.16 70.4038 310.122 69.6185 306.526 69.6185H295.924V105.95H306.526C310.164 105.95 313.222 105.144 315.702 103.532C318.182 101.92 320.063 99.7505 321.344 97.0225C322.626 94.2532 323.266 91.1532 323.266 87.7225ZM335.905 109.794V65.7745H354.505C356.406 65.7745 358.142 66.1672 359.713 66.9525C361.283 67.7378 362.647 68.8125 363.805 70.1765C365.003 71.4992 365.913 72.9872 366.533 74.6405C367.194 76.2525 367.525 77.9058 367.525 79.6005C367.525 81.7085 367.111 83.6925 366.285 85.5525C365.499 87.4125 364.363 88.9832 362.875 90.2645C361.428 91.5458 359.713 92.3932 357.729 92.8065L368.517 109.794H363.619L353.265 93.5505H340.245V109.794H335.905ZM340.245 89.7065H354.629C356.365 89.7065 357.873 89.2312 359.155 88.2805C360.436 87.3298 361.428 86.0898 362.131 84.5605C362.833 82.9898 363.185 81.3365 363.185 79.6005C363.185 77.8232 362.771 76.1905 361.945 74.7025C361.159 73.1732 360.085 71.9538 358.721 71.0445C357.398 70.0938 355.91 69.6185 354.257 69.6185H340.245V89.7065ZM376.411 109.794V65.7745H380.751V109.794H376.411ZM409.459 110.104C406.525 110.104 403.797 109.484 401.275 108.244C398.754 106.963 396.563 105.248 394.703 103.098C392.843 100.949 391.397 98.5518 390.363 95.9065C389.371 93.2612 388.875 90.5332 388.875 87.7225C388.875 84.7465 389.371 81.9358 390.363 79.2905C391.397 76.6038 392.823 74.2272 394.641 72.1605C396.46 70.0938 398.609 68.4612 401.089 67.2625C403.569 66.0638 406.277 65.4645 409.211 65.4645C413.551 65.4645 417.085 66.3532 419.813 68.1305C422.541 69.9078 424.608 72.2225 426.013 75.0745L422.665 77.3065C421.26 74.5785 419.379 72.5738 417.023 71.2925C414.667 70.0112 412.043 69.3705 409.149 69.3705C406.711 69.3705 404.499 69.8872 402.515 70.9205C400.573 71.9538 398.899 73.3385 397.493 75.0745C396.088 76.8105 395.013 78.7738 394.269 80.9645C393.567 83.1552 393.215 85.4285 393.215 87.7845C393.215 90.2645 393.629 92.6205 394.455 94.8525C395.282 97.0432 396.46 99.0065 397.989 100.742C399.519 102.437 401.275 103.78 403.259 104.772C405.285 105.723 407.455 106.198 409.769 106.198C412.456 106.198 414.998 105.537 417.395 104.214C419.793 102.85 422.087 100.763 424.277 97.9525V102.54C420.103 107.583 415.163 110.104 409.459 110.104ZM423.595 91.5045H413.799V88.1565H427.253V109.794H423.595V91.5045ZM453.902 110.104C450.802 110.104 447.992 109.484 445.47 108.244C442.949 107.004 440.779 105.33 438.96 103.222C437.142 101.073 435.736 98.6758 434.744 96.0305C433.752 93.3438 433.256 90.5952 433.256 87.7845C433.256 84.8498 433.773 82.0598 434.806 79.4145C435.84 76.7278 437.286 74.3512 439.146 72.2845C441.048 70.1765 443.259 68.5232 445.78 67.3245C448.302 66.0845 451.03 65.4645 453.964 65.4645C457.064 65.4645 459.875 66.1052 462.396 67.3865C464.918 68.6678 467.067 70.3832 468.844 72.5325C470.663 74.6818 472.068 77.0792 473.06 79.7245C474.052 82.3698 474.548 85.0772 474.548 87.8465C474.548 90.7812 474.032 93.5918 472.998 96.2785C471.965 98.9238 470.518 101.3 468.658 103.408C466.798 105.475 464.608 107.108 462.086 108.306C459.565 109.505 456.837 110.104 453.902 110.104ZM437.596 87.7845C437.596 90.1818 437.989 92.4965 438.774 94.7285C439.56 96.9192 440.676 98.8825 442.122 100.618C443.569 102.313 445.284 103.677 447.268 104.71C449.294 105.702 451.505 106.198 453.902 106.198C456.424 106.198 458.676 105.682 460.66 104.648C462.686 103.574 464.401 102.168 465.806 100.432C467.253 98.6552 468.348 96.6712 469.092 94.4805C469.836 92.2898 470.208 90.0578 470.208 87.7845C470.208 85.3872 469.816 83.0932 469.03 80.9025C468.245 78.7118 467.108 76.7485 465.62 75.0125C464.174 73.2765 462.458 71.9125 460.474 70.9205C458.49 69.9285 456.3 69.4325 453.902 69.4325C451.422 69.4325 449.17 69.9492 447.144 70.9825C445.16 72.0158 443.445 73.4212 441.998 75.1985C440.593 76.9345 439.498 78.8978 438.712 81.0885C437.968 83.2792 437.596 85.5112 437.596 87.7845Z" fill="black"/>
<path d="M490.357 81.5225V109.794H481.801V65.7745H488.621L511.375 94.7905V65.8365H519.931V109.794H512.801L490.357 81.5225ZM541.054 65.7745H549.734L565.916 109.794H557.112L553.02 98.8205H537.644L533.614 109.794H524.81L541.054 65.7745ZM551.47 92.8065L545.394 74.6405L539.07 92.8065H551.47ZM596.425 77.3065C596.136 77.0172 595.599 76.6245 594.813 76.1285C594.069 75.6325 593.139 75.1572 592.023 74.7025C590.949 74.2478 589.771 73.8552 588.489 73.5245C587.208 73.1525 585.906 72.9665 584.583 72.9665C582.269 72.9665 580.512 73.4005 579.313 74.2685C578.156 75.1365 577.577 76.3558 577.577 77.9265C577.577 79.1252 577.949 80.0758 578.693 80.7785C579.437 81.4812 580.553 82.0805 582.041 82.5765C583.529 83.0725 585.389 83.6098 587.621 84.1885C590.515 84.8912 593.015 85.7592 595.123 86.7925C597.273 87.7845 598.905 89.1072 600.021 90.7605C601.179 92.3725 601.757 94.5218 601.757 97.2085C601.757 99.5645 601.323 101.59 600.455 103.284C599.587 104.938 598.389 106.281 596.859 107.314C595.33 108.348 593.594 109.112 591.651 109.608C589.709 110.063 587.642 110.29 585.451 110.29C583.261 110.29 581.07 110.063 578.879 109.608C576.689 109.154 574.581 108.513 572.555 107.686C570.53 106.818 568.67 105.785 566.975 104.586L570.757 97.2085C571.129 97.5805 571.791 98.0765 572.741 98.6965C573.692 99.2752 574.849 99.8745 576.213 100.494C577.577 101.073 579.065 101.569 580.677 101.982C582.289 102.396 583.922 102.602 585.575 102.602C587.89 102.602 589.647 102.21 590.845 101.424C592.044 100.639 592.643 99.5232 592.643 98.0765C592.643 96.7538 592.168 95.7205 591.217 94.9765C590.267 94.2325 588.944 93.5918 587.249 93.0545C585.555 92.4758 583.55 91.8558 581.235 91.1945C578.466 90.4092 576.151 89.5412 574.291 88.5905C572.431 87.5985 571.047 86.3585 570.137 84.8705C569.228 83.3825 568.773 81.5225 568.773 79.2905C568.773 76.2732 569.476 73.7518 570.881 71.7265C572.328 69.6598 574.271 68.1098 576.709 67.0765C579.148 66.0018 581.855 65.4645 584.831 65.4645C586.898 65.4645 588.841 65.6918 590.659 66.1465C592.519 66.6012 594.255 67.2005 595.867 67.9445C597.479 68.6885 598.926 69.4945 600.207 70.3625L596.425 77.3065ZM605.557 87.4745C605.557 84.7878 606.032 82.1632 606.983 79.6005C607.975 76.9965 609.401 74.6405 611.261 72.5325C613.121 70.3832 615.394 68.6885 618.081 67.4485C620.767 66.1672 623.826 65.5265 627.257 65.5265C631.307 65.5265 634.8 66.4152 637.735 68.1925C640.711 69.9698 642.922 72.2845 644.369 75.1365L637.797 79.6625C637.053 78.0092 636.081 76.7072 634.883 75.7565C633.684 74.7645 632.403 74.0825 631.039 73.7105C629.675 73.2972 628.331 73.0905 627.009 73.0905C624.859 73.0905 622.979 73.5245 621.367 74.3925C619.796 75.2605 618.473 76.3972 617.399 77.8025C616.324 79.2078 615.518 80.7785 614.981 82.5145C614.485 84.2505 614.237 85.9865 614.237 87.7225C614.237 89.6652 614.547 91.5458 615.167 93.3645C615.787 95.1418 616.655 96.7332 617.771 98.1385C618.928 99.5025 620.292 100.598 621.863 101.424C623.475 102.21 625.231 102.602 627.133 102.602C628.497 102.602 629.881 102.375 631.287 101.92C632.692 101.466 633.994 100.742 635.193 99.7505C636.391 98.7585 637.321 97.4772 637.983 95.9065L644.989 99.9365C644.121 102.127 642.695 103.987 640.711 105.516C638.768 107.046 636.577 108.203 634.139 108.988C631.7 109.774 629.282 110.166 626.885 110.166C623.743 110.166 620.871 109.526 618.267 108.244C615.663 106.922 613.41 105.186 611.509 103.036C609.649 100.846 608.181 98.4072 607.107 95.7205C606.073 92.9925 605.557 90.2438 605.557 87.4745ZM650.727 109.794V65.7745H659.283V109.794H650.727ZM704.365 109.794V80.9025L693.081 102.416H688.307L677.023 80.9025V109.794H668.467V65.7745H677.643L690.663 90.8225L703.807 65.7745H712.921V109.794H704.365ZM752.677 102.292V109.794H722.111V65.7745H752.119V73.2765H730.667V83.8785H749.205V90.8225H730.667V102.292H752.677ZM767.904 81.5225V109.794H759.348V65.7745H766.168L788.922 94.7905V65.8365H797.478V109.794H790.348L767.904 81.5225ZM839.805 74.7025H826.413V109.794H816.245V74.7025H802.791V65.7745H839.805V74.7025ZM863.205 110.166C859.898 110.166 856.902 109.546 854.215 108.306C851.57 107.025 849.276 105.33 847.333 103.222C845.432 101.073 843.964 98.6758 842.931 96.0305C841.898 93.3438 841.381 90.5745 841.381 87.7225C841.381 84.7878 841.918 81.9978 842.993 79.3525C844.109 76.7072 845.638 74.3512 847.581 72.2845C849.565 70.1765 851.9 68.5232 854.587 67.3245C857.274 66.1258 860.208 65.5265 863.391 65.5265C866.656 65.5265 869.612 66.1672 872.257 67.4485C874.944 68.6885 877.238 70.3832 879.139 72.5325C881.082 74.6818 882.57 77.0998 883.603 79.7865C884.636 82.4318 885.153 85.1392 885.153 87.9085C885.153 90.8432 884.616 93.6332 883.541 96.2785C882.466 98.9238 880.937 101.3 878.953 103.408C876.969 105.475 874.634 107.128 871.947 108.368C869.302 109.567 866.388 110.166 863.205 110.166ZM851.735 87.8465C851.735 89.5412 851.983 91.1945 852.479 92.8065C852.975 94.3772 853.698 95.7825 854.649 97.0225C855.641 98.2625 856.86 99.2545 858.307 99.9985C859.754 100.742 861.407 101.114 863.267 101.114C865.21 101.114 866.904 100.742 868.351 99.9985C869.798 99.2132 870.996 98.1798 871.947 96.8985C872.898 95.6172 873.6 94.1912 874.055 92.6205C874.551 91.0085 874.799 89.3758 874.799 87.7225C874.799 86.0278 874.551 84.3952 874.055 82.8245C873.559 81.2538 872.815 79.8485 871.823 78.6085C870.831 77.3272 869.612 76.3352 868.165 75.6325C866.718 74.9298 865.086 74.5785 863.267 74.5785C861.324 74.5785 859.63 74.9505 858.183 75.6945C856.778 76.4385 855.579 77.4512 854.587 78.7325C853.636 79.9725 852.913 81.3985 852.417 83.0105C851.962 84.5812 851.735 86.1932 851.735 87.8465Z" fill="#2D27FD"/>
<path d="M104.034 146.721C136.962 146.721 163.656 120.027 163.656 87.099C163.656 54.1708 136.962 27.4772 104.034 27.4772C71.1057 27.4772 44.4121 54.1708 44.4121 87.099C44.4121 120.027 71.1057 146.721 104.034 146.721Z" fill="#FEF107"/>
<path d="M129.086 49.0427C136.724 57.1127 142.076 67.2678 144.301 78.1874C147.43 94.7136 143.037 112.944 132.523 126.156C131.727 127.322 126.286 132.633 125.664 130.895C126.157 128.151 129.866 124.528 131.921 121.521C141.681 108.364 144.774 90.7011 140.311 74.9248C131.91 43.4054 96.9332 25.1407 66.5511 37.9251C44.8764 46.4319 30.8338 70.4821 34.0854 93.5656C35.3313 105.453 40.2857 116.823 48.586 125.51C51.2026 128.26 54.0978 130.733 57.173 132.955C59.8087 134.905 64.4622 137.619 66.0961 139.221C66.4318 139.625 67.3816 140.347 66.5959 140.623C62.0723 140.407 55.8381 136.031 51.9581 132.881C28.7349 113.973 24.0609 79.7024 40.6878 54.9135C61.4763 24.7768 103.965 23.3672 129.022 48.9793L129.086 49.0427Z" fill="#343434"/>
<path d="M94.9764 147.511C102.748 145.962 112.169 143.854 119.774 147.145C121.967 148.117 123.889 150.389 123.161 152.884C121.552 158.33 111.691 161.824 106.625 163.032C99.1386 164.739 91.246 166.297 83.6172 164.819C82.8964 164.654 82.4191 164.467 82.3073 164.306C82.2142 164.178 82.3401 164.067 82.6592 163.979C84.0234 163.676 85.644 163.749 87.0722 163.69C89.5054 163.628 92.0154 163.467 94.5843 163.179C102.581 162.242 110.895 160.322 117.73 155.949C120.067 154.488 122.2 151.81 119.183 149.906C117.56 148.935 115.358 148.67 113.435 148.54C102.639 148.194 91.8187 150.343 81.8257 154.338C80.9551 154.646 79.3243 155.452 78.645 155.286C78.3049 155.073 79.084 154.455 79.3371 154.202C83.735 150.636 89.4665 148.731 94.9272 147.523L94.9769 147.514L94.9764 147.511Z" fill="#1D1D1D"/>
<path d="M93.5125 138.601C102.443 136.829 113.275 134.451 121.883 137.549C124.364 138.467 126.499 140.698 125.598 143.225C123.607 148.745 112.233 152.529 106.407 153.883C97.798 155.805 88.7287 157.589 80.0447 156.313C79.2249 156.167 78.6842 155.992 78.5607 155.833C78.4577 155.707 78.6048 155.593 78.9722 155.495C80.5407 155.153 82.3921 155.182 84.0271 155.083C86.8116 154.954 89.6865 154.723 92.6324 154.362C101.804 153.2 111.365 151.041 119.303 146.457C122.015 144.923 124.528 142.173 121.131 140.342C119.301 139.41 116.79 139.204 114.594 139.127C102.257 139.077 89.8231 141.535 78.2845 145.826C77.2804 146.159 75.3931 147.015 74.6208 146.867C74.2377 146.662 75.1458 146.019 75.4422 145.758C80.5701 142.052 87.1774 139.979 93.4559 138.614L93.5129 138.604L93.5125 138.601Z" fill="#1D1D1D"/>
<path d="M103.015 71.9471C103.814 72.2352 104.558 72.612 105.218 73.1519C105.24 73.1701 105.262 73.188 105.285 73.2067C105.808 73.6379 106.181 74.083 106.51 74.676C106.532 74.7137 106.553 74.7515 106.576 74.7902C106.809 75.2036 107 75.6274 107.162 76.0734C107.181 76.1236 107.199 76.1739 107.218 76.2239C107.247 76.3048 107.275 76.386 107.301 76.4682C107.314 76.5056 107.326 76.5431 107.338 76.5816C107.542 77.2336 107.549 77.8928 107.538 78.57C107.536 78.6932 107.536 78.8162 107.538 78.9395C107.544 79.7267 107.339 80.5163 107.154 81.2767C107.147 81.3057 107.14 81.3348 107.133 81.3648C107.113 81.4493 107.092 81.5335 107.071 81.6174C107.065 81.6416 107.059 81.6656 107.053 81.6905C106.951 82.0933 106.809 82.4823 106.657 82.8682C106.64 82.9111 106.623 82.9541 106.606 82.9971C106.552 83.1338 106.498 83.2702 106.444 83.4068C106.435 83.4301 106.425 83.4534 106.416 83.4773C106.127 84.2021 105.831 84.9168 105.453 85.6004C105.439 85.6246 105.426 85.6491 105.412 85.6738C105.209 86.0405 104.999 86.4036 104.786 86.7645C104.749 86.826 104.714 86.8875 104.678 86.9491C103.898 88.2896 102.914 89.5771 101.865 90.717C101.802 90.785 101.74 90.8534 101.678 90.9216C101.137 91.5151 100.596 92.1048 100.004 92.6488C99.8491 92.7927 99.6981 92.9403 99.5468 93.0878C99.5308 93.1034 99.5151 93.1187 99.4986 93.1349C99.3223 93.3063 99.1474 93.4786 98.9746 93.6532C98.0777 94.5588 97.1253 95.4088 96.1423 96.2192C95.9332 96.392 95.7284 96.5693 95.524 96.7475C94.9403 97.2553 94.35 97.7411 93.7273 98.2002C93.559 98.3247 93.3926 98.4515 93.2263 98.5782C92.9428 98.7937 92.6583 99.007 92.3701 99.2155C92.1643 99.3647 91.9602 99.516 91.7564 99.6682C91.7196 99.6956 91.6829 99.7231 91.6458 99.7505C91.5942 99.789 91.5426 99.8275 91.4912 99.8657C91.4615 99.8881 91.4316 99.91 91.4009 99.9331C91.3349 99.9842 91.2725 100.036 91.2112 100.093C91.2235 100.122 91.2355 100.152 91.2482 100.182C91.4887 100.779 91.5751 101.383 91.625 102.023C91.6278 102.059 91.6306 102.095 91.6337 102.132C91.6915 102.886 91.6744 103.6 91.5929 104.352C91.5883 104.394 91.5841 104.436 91.5794 104.479C91.5046 105.168 91.3769 105.837 91.2226 106.511C91.2016 106.605 91.1812 106.698 91.1609 106.791C90.9733 107.64 90.7509 108.485 90.4796 109.311C89.9735 110.853 89.5775 112.442 89.2282 114.026C89.2074 114.119 89.1861 114.213 89.1646 114.307C88.829 115.775 88.5661 117.28 88.5967 118.79C88.5971 118.82 88.5978 118.851 88.5981 118.882C88.6151 119.841 88.7935 120.65 89.4867 121.346C90.0152 121.855 90.6446 122.228 91.2748 122.595C91.308 122.615 91.3415 122.635 91.3755 122.655C91.574 122.764 91.7874 122.844 91.9965 122.929C92.0204 122.938 92.0441 122.948 92.0684 122.958C92.1949 123.01 92.3212 123.061 92.4479 123.112C92.5505 123.153 92.6525 123.195 92.7547 123.237C94.2169 123.841 95.7338 124.11 97.3193 124.071C97.355 124.071 97.3909 124.07 97.4276 124.069C97.4591 124.069 97.4911 124.068 97.5236 124.067C97.6129 124.076 97.6507 124.096 97.7167 124.155C97.6798 124.157 97.6431 124.159 97.605 124.161C97.3465 124.176 97.0893 124.193 96.8319 124.223C95.8283 124.341 94.8856 124.24 93.9044 124.004C93.8685 123.996 93.8323 123.988 93.7954 123.98C93.5744 123.921 93.3629 123.833 93.1502 123.751C93.1264 123.741 93.1026 123.732 93.0779 123.722C92.8971 123.652 92.7169 123.582 92.5366 123.511C92.5103 123.5 92.484 123.49 92.4568 123.479C91.6696 123.167 90.917 122.847 90.2225 122.355C90.1881 122.332 90.1538 122.308 90.1183 122.284C89.4128 121.8 88.8574 121.239 88.509 120.448C88.4974 120.423 88.4859 120.398 88.4739 120.372C88.2882 119.92 88.2906 119.365 88.2715 118.881C88.2694 118.829 88.2669 118.777 88.2643 118.725C88.1842 117.056 88.5497 115.294 88.96 113.685C89.0195 113.451 89.0753 113.217 89.129 112.982C89.2648 112.388 89.4169 111.8 89.5778 111.213C89.5982 111.139 89.6184 111.064 89.6387 110.99C89.7944 110.419 89.9554 109.851 90.1412 109.288C90.682 107.651 91.1032 105.937 91.2874 104.22C91.3004 104.1 91.3149 103.979 91.3297 103.858C91.3777 103.445 91.3886 103.048 91.3591 102.633C91.3523 102.532 91.3463 102.431 91.3407 102.33C91.3069 101.731 91.2641 101.155 91.0743 100.581C91.0512 100.501 91.0408 100.43 91.0374 100.347L90.9137 100.298C90.8724 100.315 90.8324 100.34 90.7938 100.372C90.7704 100.389 90.7472 100.407 90.7232 100.425C90.6982 100.444 90.6729 100.464 90.6469 100.484C90.5921 100.525 90.5369 100.567 90.4821 100.608C90.4534 100.629 90.4246 100.651 90.3952 100.674C89.8114 101.114 89.2076 101.522 88.5872 101.909C88.2387 102.127 87.8967 102.355 87.5536 102.581C87.4387 102.657 87.3235 102.733 87.2083 102.809C87.1611 102.84 87.1135 102.871 87.0663 102.903C86.5618 103.235 86.0435 103.546 85.5147 103.838C85.2976 103.959 85.0879 104.09 84.8779 104.223C84.4582 104.487 84.0287 104.737 83.5964 104.981C83.5649 104.998 83.5331 105.016 83.501 105.034C83.3074 105.143 83.1122 105.248 82.9153 105.35C82.7347 105.445 82.5578 105.543 82.3826 105.647C82.1746 105.77 81.9623 105.883 81.7469 105.994C81.605 106.066 81.4652 106.142 81.3265 106.221C81.1408 106.326 80.9498 106.416 80.7571 106.507C80.5778 106.591 80.4055 106.684 80.2332 106.783C80.0931 106.86 79.9498 106.929 79.8054 106.997C79.72 107.037 79.6384 107.078 79.5586 107.129C79.5384 107.141 79.5185 107.153 79.4979 107.165L79.436 107.14C79.4204 107.155 79.4048 107.17 79.3891 107.186C79.3218 107.242 79.2633 107.272 79.1826 107.305C79.155 107.317 79.1274 107.328 79.0991 107.34C79.0703 107.352 79.0419 107.364 79.0123 107.376C78.8442 107.446 78.6786 107.517 78.5173 107.601C78.3246 107.702 78.1248 107.785 77.9243 107.87C77.7545 107.942 77.5903 108.02 77.4268 108.106C77.2785 108.181 77.1245 108.244 76.9712 108.308C76.8465 108.361 76.7248 108.416 76.6051 108.48C76.3729 108.601 76.1319 108.702 75.8915 108.806C75.8082 108.842 75.7249 108.879 75.6419 108.915C75.3377 109.047 75.037 109.163 74.7191 109.257C74.6318 109.285 74.5451 109.315 74.4581 109.344C74.4358 109.351 74.4137 109.359 74.3906 109.367C74.2734 109.406 74.1569 109.447 74.0407 109.489C73.7049 109.61 73.3682 109.701 73.0207 109.78C72.9153 109.804 72.8101 109.83 72.7046 109.855C71.4172 110.165 70.1407 110.423 68.8671 109.924C68.8252 109.908 68.7829 109.892 68.7407 109.876C68.3599 109.734 68.1502 109.572 67.952 109.22C67.9394 109.198 67.9265 109.175 67.9135 109.152C67.8082 108.959 67.7481 108.774 67.7193 108.555C67.7144 108.52 67.7092 108.485 67.7039 108.449C67.6319 107.826 67.8117 107.234 68.0359 106.659C68.0465 106.633 68.0563 106.607 68.0667 106.58C68.2466 106.135 68.496 105.755 68.7903 105.38C68.8065 105.359 68.8226 105.339 68.8395 105.317C69.1084 104.972 69.3889 104.64 69.6904 104.323C69.7565 104.254 69.8224 104.183 69.8878 104.112C70.48 103.479 71.1323 102.916 71.807 102.373C71.9223 102.279 72.0357 102.183 72.1491 102.087C72.6506 101.663 73.1812 101.287 73.7372 100.939C73.8989 100.837 74.0556 100.729 74.2117 100.619C74.7493 100.241 75.1428 99.9797 75.392 99.8354C75.4144 99.8224 75.437 99.8093 75.4597 99.7961C75.7702 99.6162 76.0844 99.4497 76.4087 99.2974C76.5002 99.2542 76.5904 99.2095 76.6802 99.1625C76.8011 99.0994 76.9234 99.0408 77.0465 98.9829C77.2408 98.8914 77.432 98.7995 77.6184 98.6926C78.1677 98.3807 78.7502 98.1375 79.356 97.9626C79.5213 97.9151 79.6845 97.8627 79.8475 97.8074C80.0845 97.7265 80.3223 97.6491 80.5612 97.574C80.5834 97.567 80.6056 97.56 80.6282 97.5528C83.2133 96.7332 86.0589 96.6976 88.5966 97.7094C88.669 97.7383 88.7416 97.7665 88.814 97.7947C89.7622 98.1684 90.4939 98.838 91.001 99.7192C91.0234 99.7519 91.0459 99.7847 91.069 99.8184C91.0837 99.8012 91.0983 99.7843 91.1133 99.7665C91.2245 99.656 91.3474 99.5645 91.4721 99.4702C91.4996 99.4492 91.5274 99.428 91.5556 99.4065C91.7611 99.2508 91.9686 99.0983 92.1774 98.947C92.5145 98.7022 92.8477 98.4521 93.1808 98.202C93.237 98.16 93.2929 98.1178 93.349 98.076C93.9514 97.6247 94.5343 97.1593 95.102 96.6646C95.3498 96.4486 95.5994 96.2347 95.8502 96.022C95.8686 96.0063 95.8869 95.991 95.906 95.9748C96.1085 95.803 96.3121 95.6324 96.5174 95.4639C97.2811 94.8355 98 94.1611 98.7017 93.4644C98.8555 93.3114 99.0107 93.1597 99.1655 93.0078C99.1939 92.98 99.2224 92.9519 99.2512 92.9235C99.4002 92.7772 99.5503 92.6328 99.7031 92.4906C101.184 91.1041 102.474 89.548 103.669 87.9125C103.685 87.8911 103.701 87.8696 103.717 87.8475C104.064 87.3707 104.358 86.8601 104.657 86.3522C104.676 86.3204 104.694 86.2889 104.713 86.2562C105.253 85.3405 105.699 84.4071 106.091 83.4205C106.125 83.3341 106.159 83.2477 106.194 83.1613C106.524 82.3306 106.819 81.511 106.983 80.6298C107.001 80.5344 107.021 80.4391 107.041 80.3442C107.149 79.835 107.219 79.3331 107.226 78.8131C107.227 78.7691 107.228 78.7254 107.228 78.6803C107.241 77.9639 107.169 77.2591 107.011 76.5659C106.998 76.5307 106.985 76.4953 106.973 76.4592C106.946 76.3872 106.92 76.3154 106.893 76.2434C106.861 76.1588 106.833 76.0738 106.804 75.9882C106.65 75.5509 106.459 75.1381 106.217 74.7433C106.185 74.6914 106.155 74.639 106.124 74.5865C105.679 73.8348 104.976 73.269 104.234 72.8291C104.204 72.811 104.174 72.7927 104.144 72.7742C103.88 72.6165 103.607 72.4958 103.321 72.3843C103.298 72.3748 103.274 72.3653 103.249 72.3559C101.923 71.8357 100.53 71.3494 99.1033 71.2157C99.0668 71.2119 99.0303 71.2082 98.9927 71.2044C98.8764 71.1929 98.7599 71.1821 98.6435 71.1718C98.6096 71.1687 98.576 71.1657 98.541 71.1626C97.9376 71.1165 97.3308 71.1472 96.7275 71.1775C96.6938 71.1792 96.6601 71.1809 96.6257 71.1827C96.0917 71.2089 95.558 71.2389 95.0251 71.2822C94.9973 71.2844 94.9692 71.2865 94.9406 71.2892C93.6978 71.3898 92.4815 71.5002 91.271 71.8157C90.8568 71.9229 90.4401 72.0172 90.0215 72.1057C89.9883 72.1126 89.9554 72.1196 89.9213 72.1269C89.7544 72.1623 89.5873 72.1973 89.4204 72.2319C88.7142 72.3797 88.0349 72.5753 87.3594 72.8304C87.2554 72.8682 87.1504 72.9013 87.0447 72.9337C86.796 73.0114 86.5558 73.1076 86.3137 73.2038C86.2081 73.2456 86.1024 73.2859 85.9951 73.3231C85.7553 73.4065 85.5192 73.5004 85.2822 73.5929C85.2551 73.6033 85.2279 73.6141 85.1999 73.6249C84.7294 73.8054 84.267 74.0042 83.8128 74.2212C83.6811 74.289 83.5468 74.3514 83.413 74.4145C83.2276 74.5019 83.0432 74.5901 82.8615 74.6851C82.738 74.7494 82.6128 74.8107 82.4878 74.8725C82.4234 74.9045 82.359 74.9365 82.2952 74.9687C82.1064 75.0637 81.9161 75.1543 81.7243 75.2431C81.4299 75.3797 81.1437 75.5221 80.8626 75.6848C80.7627 75.7411 80.6624 75.7973 80.5623 75.8532C80.5106 75.8823 80.4584 75.9116 80.4066 75.9406C80.3817 75.9545 80.3572 75.9685 80.3317 75.9828C80.2712 76.0167 80.2111 76.0507 80.1509 76.0847C79.9846 76.178 79.8175 76.2688 79.6487 76.3567C79.3903 76.4914 79.1386 76.6342 78.8896 76.7856C78.794 76.8437 78.6984 76.901 78.6026 76.9586C78.5832 76.9701 78.5636 76.9817 78.5439 76.9935C78.3966 77.0814 78.2477 77.1661 78.0983 77.2503C77.8519 77.3898 77.6105 77.5366 77.3702 77.6869C77.2349 77.7709 77.0991 77.8525 76.9593 77.9286C76.5705 78.1403 76.209 78.3797 75.8474 78.6354C75.7392 78.7115 75.6308 78.7875 75.522 78.8633C75.4956 78.882 75.4693 78.9003 75.442 78.9193C75.1728 79.107 74.8984 79.2861 74.6227 79.464C74.1162 79.7919 73.624 80.1359 73.1369 80.4924C73.104 80.5164 73.0715 80.5402 73.0377 80.5649C72.8467 80.7049 72.6562 80.8454 72.4659 80.9864C72.3783 81.0512 72.2906 81.1157 72.2029 81.1801C71.8731 81.4225 71.5507 81.6726 71.2318 81.9293C71.0912 82.0426 70.9499 82.1541 70.8074 82.2652C70.7861 82.2818 70.7647 82.2985 70.7425 82.3156C70.6183 82.412 70.4926 82.5052 70.3654 82.5975C70.1476 82.7589 69.9447 82.9369 69.741 83.1158C69.6032 83.2366 69.4638 83.3525 69.3178 83.4632C69.1259 83.6125 68.9569 83.78 68.7886 83.955C68.7394 84.0063 68.6897 84.0571 68.6401 84.1079C68.4742 84.2784 68.3124 84.4513 68.1535 84.6285C67.9773 84.8249 67.7919 85.0103 67.6027 85.1942C67.3382 85.4521 67.078 85.7115 66.8352 85.9904C66.6989 86.146 66.5553 86.293 66.4087 86.4388C66.2344 86.6124 66.0617 86.7874 65.8931 86.9673C65.8751 86.9864 65.8572 87.0052 65.8386 87.0248C65.7425 87.1284 65.6639 87.23 65.5951 87.3549C65.5277 87.3162 65.4604 87.2774 65.3909 87.2375C65.4728 86.9305 65.6954 86.7401 65.9133 86.5229C65.951 86.485 65.9884 86.447 66.0258 86.4089C66.0817 86.3523 66.1372 86.2959 66.1929 86.2396C66.4376 85.9929 66.6764 85.7412 66.9068 85.4808C67.0579 85.3115 67.2184 85.1555 67.3832 85C67.6134 84.7824 67.8284 84.5544 68.0404 84.3187C68.7575 83.5247 69.5669 82.7971 70.4346 82.1705C70.6421 82.0206 70.8403 81.8608 71.0376 81.6978C71.3765 81.419 71.7256 81.1576 72.0806 80.9005C72.2108 80.8058 72.3405 80.7098 72.4701 80.6142C72.5966 80.5209 72.7231 80.4276 72.8498 80.3347C72.9325 80.2737 73.0154 80.2124 73.0983 80.1511C73.4935 79.8598 73.8964 79.5821 74.3084 79.3152C74.573 79.1434 74.8358 78.969 75.096 78.7904C75.1241 78.7713 75.152 78.7518 75.1806 78.7322C75.2948 78.6535 75.409 78.5748 75.5234 78.4957C75.8647 78.2601 76.2068 78.0327 76.5661 77.8258C76.6227 77.7926 76.6791 77.7592 76.7356 77.7263C76.7865 77.6965 76.8372 77.6667 76.8881 77.6369C77.0964 77.5147 77.3028 77.3902 77.5078 77.2626C77.7328 77.1229 77.9626 76.9944 78.1952 76.8678C78.3783 76.7676 78.5573 76.6621 78.7346 76.552C79.0225 76.3732 79.3163 76.2083 79.6166 76.0514C79.6397 76.0394 79.6624 76.0275 79.686 76.015C79.7091 76.0029 79.7322 75.9909 79.7557 75.9786C79.9144 75.8953 80.07 75.8075 80.2243 75.7163C80.6017 75.4936 80.9889 75.2925 81.3824 75.0996C81.4442 75.0688 81.5057 75.0378 81.5671 75.0069C81.7778 74.9021 81.9908 74.8023 82.204 74.7028C82.3684 74.6261 82.5302 74.5458 82.6911 74.4623C82.7815 74.4155 82.8726 74.3704 82.9638 74.3254C83.0795 74.2681 83.1948 74.21 83.3094 74.1501C83.7441 73.9269 84.1898 73.7282 84.6376 73.534C84.6602 73.5242 84.6824 73.5143 84.7054 73.5044C84.9335 73.4052 85.1612 73.309 85.3964 73.2281C85.5353 73.1794 85.6707 73.1232 85.807 73.068C86.0322 72.9781 86.2574 72.8971 86.4895 72.8268C86.6373 72.7781 86.781 72.7208 86.9255 72.6632C87.1456 72.5752 87.3661 72.4963 87.5931 72.4269C87.6933 72.3952 87.7898 72.358 87.8873 72.3195C88.0844 72.2453 88.2842 72.1892 88.4874 72.1355C88.5172 72.1275 88.5469 72.1196 88.5776 72.1117C88.8172 72.0494 89.0588 71.9977 89.3008 71.9465C89.5819 71.8871 89.8624 71.8257 90.1429 71.7643C90.2101 71.7497 90.2777 71.7349 90.3448 71.7202C90.7649 71.6291 91.183 71.5318 91.5993 71.424C92.3715 71.2247 93.1567 71.156 93.9483 71.0779C94.1114 71.0619 94.2741 71.0443 94.4366 71.0252C95.2765 70.9278 96.1232 70.9016 96.9672 70.8668C97.0977 70.8615 97.2281 70.8555 97.3586 70.8492C98.4005 70.8054 99.458 70.9061 100.468 71.1631C100.588 71.1937 100.708 71.223 100.828 71.2522C101.573 71.4375 102.293 71.6833 103.015 71.9436L103.015 71.9471ZM86.1066 97.3379C86.0753 97.3337 86.044 97.3295 86.0113 97.3251C85.0391 97.195 84.0559 97.1895 83.0802 97.2838C83.0215 97.2889 82.9628 97.294 82.904 97.2986C82.3651 97.347 81.8486 97.4822 81.3285 97.63C81.2863 97.6416 81.2443 97.6533 81.2008 97.6652C80.9282 97.7409 80.6605 97.8261 80.3929 97.9179C80.2003 97.9837 80.0064 98.0447 79.8121 98.1056C79.7593 98.122 79.7067 98.1389 79.6539 98.1553C79.6261 98.164 79.5982 98.1727 79.5698 98.1819C79.5128 98.1998 79.4553 98.218 79.3983 98.236C79.2765 98.2745 79.1544 98.3127 79.0318 98.3495C78.6262 98.4727 78.2418 98.6426 77.8684 98.8434C77.4652 99.0587 77.0581 99.2613 76.6444 99.4554C76.3567 99.5907 76.076 99.7324 75.8008 99.8921C75.7768 99.9056 75.7529 99.9195 75.7281 99.9333C75.356 100.145 75.0028 100.372 74.6573 100.625C74.5573 100.698 74.4558 100.769 74.3539 100.839C74.3341 100.853 74.3141 100.867 74.2939 100.881C74.1481 100.981 74.0002 101.079 73.8519 101.175C72.974 101.749 72.1706 102.407 71.3774 103.092C71.2571 103.196 71.136 103.299 71.0146 103.402C70.1506 104.139 69.3917 105.011 68.7302 105.934C68.7038 105.968 68.6769 106.003 68.6497 106.038C68.5586 106.165 68.5005 106.3 68.4426 106.444C68.4317 106.472 68.4205 106.499 68.4089 106.527C68.3855 106.585 68.3625 106.643 68.3395 106.7C68.3051 106.787 68.2693 106.873 68.2336 106.959C68.0521 107.406 67.9161 107.866 67.9736 108.354C67.9763 108.378 67.9789 108.403 67.9813 108.429C68.0253 108.804 68.17 109.177 68.4563 109.434C69.3065 110.006 70.5351 110.007 71.5068 109.825C71.7239 109.78 71.9397 109.729 72.1552 109.677C72.2723 109.649 72.3896 109.622 72.5071 109.595C73.019 109.477 73.5235 109.359 74.015 109.169C74.141 109.124 74.2683 109.087 74.3969 109.051C74.6944 108.965 74.9788 108.852 75.2657 108.737C75.3466 108.705 75.428 108.676 75.5102 108.648C75.8083 108.544 76.0968 108.413 76.3758 108.265C76.5182 108.194 76.6657 108.133 76.8124 108.072C76.9047 108.032 76.9935 107.987 77.0824 107.941C77.3137 107.82 77.5557 107.723 77.7962 107.623C77.8319 107.608 77.8674 107.592 77.9042 107.577C77.9364 107.563 77.9688 107.55 78.0023 107.536C78.0544 107.516 78.087 107.483 78.1004 107.436L78.1622 107.461C78.2035 107.443 78.2475 107.421 78.2942 107.395C78.4523 107.31 78.6139 107.239 78.7787 107.17C78.921 107.108 79.0582 107.041 79.1951 106.969C79.2768 106.928 79.3594 106.891 79.4438 106.856C79.6115 106.784 79.7719 106.704 79.9329 106.619C79.9733 106.597 80.014 106.576 80.0545 106.555C80.2424 106.456 80.4303 106.357 80.6181 106.257C80.8283 106.145 81.0389 106.036 81.2534 105.932C81.4681 105.828 81.6756 105.713 81.8828 105.595C82.1035 105.472 82.3247 105.349 82.5483 105.23C82.734 105.132 82.9186 105.031 83.1019 104.928C83.1837 104.882 83.2657 104.837 83.348 104.791C83.7205 104.586 84.0837 104.365 84.4459 104.141C84.8371 103.9 85.2353 103.67 85.6338 103.441C86.2509 103.086 86.8468 102.698 87.4406 102.305C87.7166 102.122 87.9932 101.94 88.272 101.763C88.2974 101.747 88.323 101.73 88.3493 101.714C88.4791 101.631 88.6095 101.549 88.74 101.467C89.0878 101.247 89.4252 101.017 89.7575 100.775C89.7823 100.757 89.8074 100.739 89.8332 100.72C89.9368 100.644 90.0404 100.569 90.1437 100.493C90.2627 100.406 90.3818 100.32 90.5021 100.235C90.5232 100.22 90.5445 100.205 90.5661 100.189C90.6055 100.162 90.6449 100.134 90.6841 100.107C90.7489 100.064 90.8012 100.01 90.8409 99.9461C90.597 99.4876 90.2807 99.0985 89.8996 98.7491C89.8804 98.7314 89.8611 98.7136 89.8417 98.6958C89.4648 98.3611 89.0572 98.1712 88.5934 97.9898C88.5628 97.9776 88.5322 97.9654 88.5009 97.953C87.7231 97.6464 86.9392 97.4415 86.1078 97.3384L86.1066 97.3379Z" fill="black"/>
<circle cx="655" cy="52.7945" r="7" fill="#FEF107"/>
</svg>
